<svg xmlns="http://www.w3.org/2000/svg" xmlns:xlink="http://www.w3.org/1999/xlink" viewBox="0,0,256,256" width="100px" height="100px" fill-rule="nonzero"><g fill="#1ea005" fill-rule="nonzero" stroke="none" stroke-width="1" stroke-linecap="butt" stroke-linejoin="miter" stroke-miterlimit="10" stroke-dasharray="" stroke-dashoffset="0" font-family="none" font-weight="none" font-size="none" text-anchor="none" style="mix-blend-mode: normal"><g transform="scale(5.12,5.12)"><path d="M22.46289,15.00391c-0.59933,0.01306 -1.20777,0.07845 -1.82227,0.18945c-3.006,0.549 -5.46431,2.09144 -7.32031,4.52344c-1.725,2.248 -2.5607,4.81016 -2.2207,7.66016c0.288,2.405 1.38631,4.33874 3.32031,5.80273c2.091,1.569 4.46925,2.06461 7.03125,1.72461c3.111,-0.418 5.56817,-1.96036 7.45117,-4.44336c0.048,-0.063 0.08291,-0.13231 0.12891,-0.19531c0.485,0.9 1.13713,1.70906 1.95313,2.41406c1.847,1.583 4.0365,2.26927 6.4375,2.32227c0.686,-0.079 1.39637,-0.10533 2.10938,-0.23633c2.453,-0.501 4.59003,-1.60895 6.33203,-3.37695c2.453,-2.483 3.48316,-5.38627 3.03516,-8.94727c-0.343,-2.533 -1.6367,-4.45781 -3.7207,-5.88281c-2.295,-1.557 -4.82853,-1.81875 -7.51953,-1.34375c-3.122,0.551 -5.43351,1.86023 -7.35352,4.36523c-0.646,-1.252 -1.53633,-2.31247 -2.73633,-3.10547c-1.58775,-1.0785 -3.30748,-1.50989 -5.10547,-1.4707zM4,20c-0.36064,-0.0051 -0.69608,0.18438 -0.87789,0.49587c-0.18181,0.3115 -0.18181,0.69676 0,1.00825c0.18181,0.3115 0.51725,0.50097 0.87789,0.49587h4c0.36064,0.0051 0.69608,-0.18438 0.87789,-0.49587c0.18181,-0.3115 0.18181,-0.69676 0,-1.00825c-0.18181,-0.3115 -0.51725,-0.50097 -0.87789,-0.49587zM22.13477,20.01172c0.60021,0.02632 1.2105,0.1822 1.82813,0.48633c0.549,0.261 0.83652,0.55014 1.22852,0.99414c0.34,0.392 0.36581,0.36672 0.75781,0.26172c1.313,-0.339 2.31263,-0.61378 3.51563,-0.92578c-0.457,0.767 -0.70422,1.3273 -0.94922,2.1543h-6.7168c-0.392,0 -0.5753,0.26097 -0.6543,0.41797c-0.366,0.68 -0.99203,2.03961 -1.33203,2.84961c-0.182,0.445 -0.05291,0.78516 0.49609,0.78516h5.04492c-0.261,0.366 -0.58336,0.91317 -0.81836,1.20117c-1.176,1.333 -2.66636,1.96256 -4.44336,1.72656c-2.065,-0.288 -3.5033,-2.01447 -3.5293,-4.10547c-0.026,-2.118 0.88997,-3.8168 2.66797,-4.9668c0.93125,-0.60438 1.90395,-0.92277 2.9043,-0.87891zM39.41016,20.20703c2.09275,-0.06851 3.93667,1.31455 4.3418,3.54492c0.051,0.257 0.05017,0.51366 0.07617,0.84766c-0.129,2.214 -1.23358,3.86197 -3.26758,4.91797c-1.364,0.695 -2.78127,0.7723 -4.19727,0.1543c-1.853,-0.824 -2.83119,-2.85723 -2.36719,-4.86523c0.566,-2.42 2.11186,-3.93947 4.50586,-4.48047c0.30562,-0.07075 0.60924,-0.10935 0.9082,-0.11914zM1,24c-0.36064,-0.0051 -0.69608,0.18438 -0.87789,0.49587c-0.18181,0.3115 -0.18181,0.69676 0,1.00825c0.18181,0.3115 0.51725,0.50097 0.87789,0.49587h6c0.36064,0.0051 0.69608,-0.18438 0.87789,-0.49587c0.18181,-0.3115 0.18181,-0.69676 0,-1.00825c-0.18181,-0.3115 -0.51725,-0.50097 -0.87789,-0.49587zM4,28c-0.36064,-0.0051 -0.69608,0.18438 -0.87789,0.49587c-0.18181,0.3115 -0.18181,0.69676 0,1.00825c0.18181,0.3115 0.51725,0.50097 0.87789,0.49587h2c0.36064,0.0051 0.69608,-0.18438 0.87789,-0.49587c0.18181,-0.3115 0.18181,-0.69676 0,-1.00825c-0.18181,-0.3115 -0.51725,-0.50097 -0.87789,-0.49587z"></path></g></g></svg>